<svg xmlns="http://www.w3.org/2000/svg" viewBox="0 0 1280 200" width="1280" height="200" role="img" aria-label="Chase.je — имиджевый сайт частного бутика-архива, chaseje.com">
<title>Chase.je — имиджевый сайт частного бутика-архива, chaseje.com</title>
<defs>
<radialGradient id="wash"><stop offset="0" stop-color="#a79b8a" stop-opacity="0.34"/><stop offset="1" stop-color="#a79b8a" stop-opacity="0"/></radialGradient>
<clipPath id="row"><rect width="1280" height="200" rx="14"/></clipPath>
</defs>
<g clip-path="url(#row)">
<rect width="1280" height="200" fill="#302b28"/>
<g><ellipse cx="900" cy="100" rx="430" ry="190" fill="url(#wash)"/><animateTransform attributeName="transform" type="translate" dur="15s" repeatCount="indefinite" calcMode="spline" keyTimes="0.000;0.333;0.667;1.000" keySplines="0.45 0 0.55 1;0.45 0 0.55 1;0.45 0 0.55 1" values="-420 0;260 14;-420 0;-420 0"/></g>
<path fill="#b3a998" d="M53.4 56.2Q52.2 56.2 51.3 55.7Q50.4 55.2 49.9 54.4Q49.4 53.5 49.4 52.3V46.5Q49.4 45.4 49.9 44.5Q50.4 43.6 51.3 43.2Q52.2 42.7 53.4 42.7Q54.6 42.7 55.5 43.2Q56.4 43.6 56.9 44.5Q57.4 45.4 57.4 46.5V52.3Q57.4 53.5 56.9 54.4Q56.4 55.2 55.5 55.7Q54.6 56.2 53.4 56.2ZM53.4 54.8Q54.5 54.8 55.1 54.1Q55.8 53.4 55.8 52.3V46.5Q55.8 45.5 55.1 44.8Q54.5 44.1 53.4 44.1Q52.3 44.1 51.7 44.8Q51 45.5 51 46.5V52.3Q51 53.4 51.7 54.1Q52.3 54.8 53.4 54.8ZM53.4 50.5Q52.9 50.5 52.6 50.2Q52.3 49.9 52.3 49.4Q52.3 48.9 52.6 48.6Q52.9 48.3 53.4 48.3Q53.9 48.3 54.2 48.6Q54.5 48.9 54.5 49.4Q54.5 49.9 54.2 50.2Q53.9 50.5 53.4 50.5ZM62.3 56V54.3L66.3 50.1Q67.3 49 67.8 48.1Q68.2 47.3 68.2 46.5Q68.2 45.4 67.6 44.8Q67 44.1 66 44.1Q64.8 44.1 64.2 44.8Q63.5 45.4 63.5 46.5H61.9Q61.9 45.4 62.4 44.5Q63 43.6 63.9 43.1Q64.8 42.7 66 42.7Q67.2 42.7 68 43.1Q68.9 43.6 69.4 44.4Q69.9 45.3 69.9 46.5Q69.9 47.6 69.3 48.7Q68.7 49.8 67.3 51.2L64.1 54.5H70.1V56Z"/>
<path fill="#b3a998" d="M863.3 56V50.9Q863 51 862.4 51.1Q861.8 51.1 860.8 51.1Q859.1 51.1 858.1 50.1Q857.1 49.1 857.1 47.3V42.9H858.8V47.3Q858.8 48.4 859.4 49Q860 49.7 861.1 49.7Q862 49.7 862.5 49.6Q863.1 49.6 863.3 49.5V42.9H864.9V56ZM869.3 56 872.7 42.9H874.9L878.3 56H876.7L875.8 52.5H871.8L871 56ZM872.1 51.1H875.5L874.4 47.1Q874.2 45.9 874 45.2Q873.8 44.4 873.8 44.2Q873.8 44.4 873.6 45.2Q873.4 45.9 873.2 47.1ZM886.5 56.2Q885.3 56.2 884.4 55.7Q883.5 55.3 883.1 54.4Q882.6 53.6 882.6 52.4V46.5Q882.6 45.3 883.1 44.4Q883.5 43.6 884.4 43.1Q885.3 42.7 886.5 42.7Q887.7 42.7 888.5 43.1Q889.4 43.6 889.9 44.4Q890.3 45.3 890.3 46.5H888.7Q888.7 45.3 888.1 44.7Q887.5 44.1 886.5 44.1Q885.4 44.1 884.8 44.7Q884.2 45.3 884.2 46.4V52.4Q884.2 53.5 884.8 54.1Q885.4 54.7 886.5 54.7Q887.5 54.7 888.1 54.1Q888.7 53.5 888.7 52.4H890.3Q890.3 53.6 889.9 54.4Q889.4 55.3 888.5 55.7Q887.7 56.2 886.5 56.2ZM898.2 56V44.3H894.6V42.8H903.4V44.3H899.8V56ZM907.9 56V42.9H909.5V48.5H913.7V42.9H915.3V56H913.7V50H909.5V56ZM920 56V42.9H921.5V48.3H922.2Q923.9 48.3 924.8 49.2Q925.7 50.1 925.7 51.7V52.6Q925.7 54.2 924.8 55.1Q923.9 56 922.2 56ZM921.5 54.6H922.2Q923.2 54.6 923.7 54Q924.2 53.5 924.2 52.6V51.7Q924.2 50.7 923.7 50.2Q923.2 49.7 922.2 49.7H921.5ZM926.9 56V42.9H928.4V56ZM933 56V42.9H934.6V50.2Q934.6 50.9 934.6 51.6Q934.5 52.3 934.5 53Q934.5 53.7 934.4 54.1L938.4 42.9H940.6V56H939V48.6Q939 48 939 47.2Q939.1 46.5 939.1 45.8Q939.2 45.2 939.2 44.8L935.2 56ZM936.8 41.5Q935.5 41.5 934.7 40.8Q933.9 40.1 933.9 38.9H935.2Q935.2 39.6 935.6 40Q936.1 40.5 936.8 40.5Q937.5 40.5 938 40Q938.4 39.6 938.4 38.9H939.7Q939.7 40.1 938.9 40.8Q938.1 41.5 936.8 41.5ZM958.3 56V42.9H965.6V44.3H959.9V48.3H962.1Q963.3 48.3 964.2 48.8Q965.1 49.2 965.6 50.1Q966.1 51 966.1 52.1Q966.1 53.3 965.6 54.2Q965.1 55 964.2 55.5Q963.3 56 962.1 56ZM959.9 54.5H962.1Q963.2 54.5 963.8 53.9Q964.5 53.2 964.5 52.1Q964.5 51 963.8 50.4Q963.2 49.8 962.1 49.8H959.9ZM972.6 56 974 52.6 970.1 42.9H971.9L974.2 49.3Q974.5 49.9 974.6 50.4Q974.7 51 974.8 51.3Q974.8 51 974.9 50.4Q975.1 49.9 975.3 49.3L977.3 42.9H979.1L974.4 56ZM986.4 56V44.3H982.8V42.8H991.6V44.3H988V56ZM996 56V42.9H997.6V50.2Q997.6 50.9 997.6 51.6Q997.5 52.3 997.5 53Q997.5 53.7 997.4 54.1L1001.4 42.9H1003.6V56H1002V48.6Q1002 48 1002 47.2Q1002.1 46.5 1002.1 45.8Q1002.2 45.2 1002.2 44.8L998.2 56ZM1008.7 56V42.9H1010.3V48.5H1012.2L1015.1 42.9H1016.9L1013.6 49.2L1017.1 56H1015.2L1012.2 49.9H1010.3V56ZM1037.6 51.3Q1036.9 51.3 1036.5 50.9Q1036.1 50.5 1036.1 49.9Q1036.1 49.2 1036.5 48.7Q1036.9 48.3 1037.6 48.3Q1038.3 48.3 1038.7 48.7Q1039.1 49.2 1039.1 49.9Q1039.1 50.5 1038.7 50.9Q1038.3 51.3 1037.6 51.3ZM1059 56V42.9H1060.6V50.2Q1060.6 50.9 1060.6 51.6Q1060.5 52.3 1060.5 53Q1060.5 53.7 1060.4 54.1L1064.4 42.9H1066.6V56H1065V48.6Q1065 48 1065 47.2Q1065.1 46.5 1065.1 45.8Q1065.2 45.2 1065.2 44.8L1061.2 56ZM1071.4 56V42.9H1073.5L1074.9 47.1Q1075.1 47.7 1075.2 48.3Q1075.4 48.8 1075.5 49.1Q1075.5 48.8 1075.7 48.3Q1075.8 47.7 1076 47.1L1077.3 42.9H1079.4V56H1077.8V51.2Q1077.8 50.4 1077.9 49.4Q1078 48.4 1078 47.4Q1078.1 46.3 1078.2 45.4Q1078.3 44.4 1078.4 43.7L1076.3 50.2H1074.6L1072.4 43.7Q1072.5 44.4 1072.6 45.3Q1072.7 46.2 1072.8 47.3Q1072.8 48.3 1072.9 49.3Q1073 50.3 1073 51.2V56ZM1084.2 56V42.9H1085.8V50.2Q1085.8 50.9 1085.8 51.6Q1085.7 52.3 1085.7 53Q1085.7 53.7 1085.6 54.1L1089.6 42.9H1091.8V56H1090.2V48.6Q1090.2 48 1090.2 47.2Q1090.3 46.5 1090.3 45.8Q1090.4 45.2 1090.4 44.8L1086.4 56ZM1095.6 58.5V54.6H1096.5Q1096.7 54.3 1096.9 53.6Q1097.1 53 1097.3 52.3Q1097.4 51.5 1097.4 50.6L1097.6 42.9H1104.3V54.6H1105.5V58.5H1104.1V56H1097.1V58.5ZM1098.2 54.6H1102.7V44.3H1099.1L1099 50.6Q1099 52 1098.7 53.1Q1098.4 54.1 1098.2 54.6ZM1108 56 1110.4 49.2 1108.2 42.9H1109.9L1111.8 48.7H1112.5V42.9H1113.9V48.7H1114.7L1116.5 42.9H1118.2L1116 49.2L1118.4 56H1116.7L1114.7 49.8H1113.9V56H1112.5V49.8H1111.7L1109.7 56ZM1122.2 56V42.9H1129.8V44.3H1123.8V48.4H1129.1V49.9H1123.8V54.5H1129.8V56ZM1134.7 56V42.9H1138.4Q1140.2 42.9 1141.2 43.8Q1142.2 44.7 1142.2 46.3Q1142.2 47.2 1141.9 47.8Q1141.5 48.5 1140.8 48.9Q1140.1 49.2 1139.1 49.2V48.9Q1140.2 48.9 1140.9 49.3Q1141.7 49.7 1142.1 50.5Q1142.5 51.3 1142.5 52.3Q1142.5 53.5 1142.1 54.3Q1141.6 55.1 1140.7 55.6Q1139.9 56 1138.7 56ZM1136.3 54.5H1138.5Q1139.6 54.5 1140.3 53.9Q1140.9 53.3 1140.9 52.3Q1140.9 51.2 1140.3 50.5Q1139.6 49.9 1138.5 49.9H1136.3ZM1136.3 48.5H1138.4Q1139.4 48.5 1140 47.9Q1140.6 47.3 1140.6 46.4Q1140.6 45.4 1140 44.9Q1139.4 44.3 1138.4 44.3H1136.3ZM1146.8 56V42.9H1148.3V48.3H1149Q1150.7 48.3 1151.6 49.2Q1152.5 50.1 1152.5 51.7V52.6Q1152.5 54.2 1151.6 55.1Q1150.7 56 1149 56ZM1148.3 54.6H1149Q1150 54.6 1150.5 54Q1151 53.5 1151 52.6V51.7Q1151 50.7 1150.5 50.2Q1150 49.7 1149 49.7H1148.3ZM1153.7 56V42.9H1155.2V56ZM1159.8 56V42.9H1161.4V50.2Q1161.4 50.9 1161.4 51.6Q1161.3 52.3 1161.3 53Q1161.3 53.7 1161.2 54.1L1165.2 42.9H1167.4V56H1165.8V48.6Q1165.8 48 1165.8 47.2Q1165.9 46.5 1165.9 45.8Q1166 45.2 1166 44.8L1162 56ZM1163.6 41.5Q1162.3 41.5 1161.5 40.8Q1160.7 40.1 1160.7 38.9H1162Q1162 39.6 1162.4 40Q1162.9 40.5 1163.6 40.5Q1164.3 40.5 1164.8 40Q1165.2 39.6 1165.2 38.9H1166.5Q1166.5 40.1 1165.7 40.8Q1164.9 41.5 1163.6 41.5ZM1188.9 56.2Q1187.7 56.2 1186.8 55.7Q1185.9 55.3 1185.5 54.4Q1185 53.6 1185 52.4V46.5Q1185 45.3 1185.5 44.4Q1185.9 43.6 1186.8 43.1Q1187.7 42.7 1188.9 42.7Q1190.1 42.7 1190.9 43.1Q1191.8 43.6 1192.3 44.4Q1192.7 45.3 1192.7 46.5H1191.1Q1191.1 45.3 1190.5 44.7Q1189.9 44.1 1188.9 44.1Q1187.8 44.1 1187.2 44.7Q1186.6 45.3 1186.6 46.4V52.4Q1186.6 53.5 1187.2 54.1Q1187.8 54.7 1188.9 54.7Q1189.9 54.7 1190.5 54.1Q1191.1 53.5 1191.1 52.4H1192.7Q1192.7 53.6 1192.3 54.4Q1191.8 55.3 1190.9 55.7Q1190.1 56.2 1188.9 56.2ZM1196.9 56 1200.3 42.9H1202.5L1205.9 56H1204.3L1203.4 52.5H1199.4L1198.6 56ZM1199.7 51.1H1203.1L1202 47.1Q1201.8 45.9 1201.6 45.2Q1201.4 44.4 1201.4 44.2Q1201.4 44.4 1201.2 45.2Q1201 45.9 1200.8 47.1ZM1210.2 56V42.9H1211.8V50.2Q1211.8 50.9 1211.8 51.6Q1211.7 52.3 1211.7 53Q1211.7 53.7 1211.6 54.1L1215.6 42.9H1217.8V56H1216.2V48.6Q1216.2 48 1216.2 47.2Q1216.3 46.5 1216.3 45.8Q1216.4 45.2 1216.4 44.8L1212.4 56ZM1214 41.5Q1212.7 41.5 1211.9 40.8Q1211.1 40.1 1211.1 38.9H1212.4Q1212.4 39.6 1212.8 40Q1213.3 40.5 1214 40.5Q1214.7 40.5 1215.2 40Q1215.6 39.6 1215.6 38.9H1216.9Q1216.9 40.1 1216.1 40.8Q1215.3 41.5 1214 41.5ZM1225.8 56V44.3H1222.2V42.8H1231V44.3H1227.4V56Z"/>
<path fill="#eee6d8" d="M90.6 88.8Q95.6 88.8 99.3 89.2Q102.9 89.7 106 90.7Q109.2 91.8 112.6 93.6Q113.3 94 113.5 94.3Q113.7 94.6 113.8 96L115.1 108.8Q115.1 109 114.5 109.2Q113.9 109.4 113.8 108.9Q111.3 99.6 105.6 95Q100 90.3 90.6 90.3Q80.6 90.3 73.2 94.5Q65.8 98.6 61.7 106.2Q57.7 113.9 57.7 124.2Q57.7 131.4 60.3 137.9Q62.9 144.4 67.6 149.4Q72.2 154.3 78.2 157.1Q84.1 159.9 90.8 159.9Q100.4 159.9 106.3 155.2Q112.1 150.6 114.6 141.6Q114.7 141.3 115.3 141.4Q115.9 141.5 115.9 141.7L115 153.6Q114.9 155 114.7 155.3Q114.4 155.6 113.8 156.1Q107.8 159.2 102.7 160.3Q97.6 161.5 90.7 161.5Q78.9 161.5 69.9 156.8Q60.8 152.2 55.6 143.8Q50.5 135.4 50.5 124.3Q50.5 116.2 53.5 109.7Q56.4 103.2 61.9 98.5Q67.3 93.8 74.6 91.3Q81.8 88.8 90.6 88.8ZM121 160Q120.7 160 120.7 159.3Q120.7 158.7 121 158.7Q125.6 158.7 127 157.2Q128.3 155.7 128.3 150.9V92.8Q128.3 88.8 127.5 86.9Q126.8 85.1 124.7 85.1Q123 85.1 119.4 86.8Q118.9 87 118.6 86.4Q118.4 85.7 118.8 85.5L132.6 78.8Q132.7 78.8 132.7 78.8Q132.7 78.8 132.8 78.8Q133.1 78.8 133.4 79Q133.6 79.2 133.6 79.6V150.9Q133.6 155.7 134.9 157.2Q136.3 158.7 141 158.7Q141.2 158.7 141.2 159.3Q141.2 160 141 160Q139 160 136.4 159.9Q133.9 159.8 131 159.8Q128.2 159.8 125.6 159.9Q123 160 121 160ZM151.2 160Q150.8 160 150.8 159.3Q150.8 158.7 151.2 158.7Q155.8 158.7 157.1 157.2Q158.5 155.7 158.5 150.9V132.7Q158.5 119.3 147.9 119.3Q143.6 119.3 139.1 122.2Q134.7 125.1 131.5 129.9L131 128.5Q136.3 121.6 141.1 118.6Q145.9 115.6 151 115.6Q157 115.6 160.4 119Q163.7 122.3 163.7 129.2V150.9Q163.7 155.7 165.1 157.2Q166.4 158.7 171.1 158.7Q171.3 158.7 171.3 159.3Q171.3 160 171.1 160Q169.1 160 166.6 159.9Q164.1 159.8 161.1 159.8Q158.3 159.8 155.7 159.9Q153.1 160 151.2 160ZM204.7 160.7Q204.3 160.9 203.8 160.9Q202.5 160.9 201.4 158.5Q200.2 156.2 200.2 151.7V130.1Q200.2 123.2 198 120.5Q195.9 117.8 192.6 117.8Q189.8 117.8 188 119.1Q186.1 120.4 185.2 122.3Q184.2 124.2 183.8 125.8Q183.5 127 183 128.5Q182.4 130 180.2 130Q178.5 130 177.7 129Q176.8 128 176.8 126.8Q176.8 124.9 178.8 123Q180.9 121 183.9 119.3Q187 117.7 190.4 116.7Q193.7 115.6 196.5 115.6Q201.1 115.6 203.3 118.6Q205.4 121.6 205.4 126.7V147.9Q205.4 151.9 206.3 153.8Q207.3 155.6 209.6 155.6Q211.8 155.6 215.8 154Q216.4 153.7 216.6 154.3Q216.8 155 216.2 155.2ZM184.9 160.8Q180.7 160.8 178.6 158.5Q176.4 156.2 176.4 153.2Q176.4 151.3 177.3 149.5Q178.3 147.7 180.7 146Q183.1 144.3 187.4 142.8L201.4 137.5L201.6 138.9L188.4 144Q186 144.9 184.8 145.9Q183.5 147 183.1 148.2Q182.6 149.4 182.6 150.6Q182.6 153.1 184.3 155.1Q185.9 157.1 189 157.1Q190.3 157.1 191.6 156.7Q193 156.3 194.9 155.2L202.4 150.8L202.6 152.2L194.2 157.4Q191.4 159.2 189.3 160Q187.1 160.8 184.9 160.8ZM223.4 123.9Q223.4 127 224.9 129Q226.4 131.1 228.8 132.5Q231.3 133.9 233.8 135.2Q236.7 136.6 239.3 138.2Q241.9 139.8 243.6 142.1Q245.3 144.3 245.3 147.9Q245.3 151.5 243.5 154.5Q241.7 157.5 238.1 159.4Q234.6 161.2 229.6 161.2Q226.9 161.2 224.3 160.5Q221.7 159.8 219 157.8Q218.8 157.5 218.6 157.2Q218.4 156.9 218.4 156.4L218.2 148.4Q218.2 148 218.8 148Q219.4 147.9 219.5 148.2Q221 152 222.9 154.5Q224.9 156.9 227.3 158Q229.8 159.1 232.8 159.1Q236.7 159.1 238.8 157.3Q240.9 155.4 240.7 151.7Q240.6 148.5 239 146.4Q237.4 144.4 235.1 143.1Q232.7 141.7 230.1 140.5Q227.3 139.2 224.8 137.7Q222.3 136.1 220.7 133.8Q219 131.4 219 127.7Q219 123.5 221.3 120.7Q223.5 118 226.9 116.7Q230.4 115.3 234.1 115.3Q236.1 115.3 238.1 115.7Q240.1 116.1 242 117Q243 117.4 243 118.2Q243 119.9 242.9 121.8Q242.8 123.7 242.8 126Q242.8 126.2 242.1 126.2Q241.4 126.2 241.4 126Q241.4 123.4 239.6 121.5Q237.8 119.6 235.1 118.6Q232.5 117.6 229.9 117.6Q226.9 117.6 225.2 119.1Q223.4 120.7 223.4 123.9ZM270.7 161.3Q264.1 161.3 259.6 158.3Q255.2 155.2 253 150.3Q250.7 145.3 250.7 139.8Q250.7 133 253.9 127.6Q257 122.1 262.3 119Q267.7 115.8 273.9 115.8Q280.3 115.8 283.4 119.2Q286.6 122.7 286.6 128.5Q286.6 130 286.3 130.7Q286 131.3 285.2 131.3H280Q280.5 124.4 277.8 121.2Q275 118 270.3 118Q264.1 118 260.6 122.8Q257.1 127.5 257.1 135.8Q257.1 142.1 259.1 147.1Q261.2 152 265.1 154.9Q269 157.8 274.6 157.8Q278.5 157.8 281 156.6Q283.6 155.4 285.9 154Q286.1 153.7 286.5 154.2Q286.9 154.7 286.7 155.1Q282.8 158.4 278.8 159.9Q274.8 161.3 270.7 161.3ZM255.7 131.4 255.6 130.1 281.1 129.6V131.3ZM299 161.2Q297 161.2 295.8 160.1Q294.5 158.9 294.5 156.9Q294.5 155 295.8 153.8Q297 152.7 299 152.7Q301.1 152.7 302.3 153.8Q303.4 155 303.4 156.9Q303.4 158.9 302.3 160.1Q301.1 161.2 299 161.2ZM324 116.5Q324 117.3 323.9 120.9Q323.8 124.4 323.8 129.6V165.4Q323.8 172.8 322.4 177.8Q321.1 182.7 317.9 186Q314.7 189.2 309.1 191.6Q308.9 191.7 308.6 191.1Q308.3 190.5 308.5 190.4Q314.1 188 316.3 182.7Q318.5 177.5 318.5 168V129.8Q318.5 125.7 317.7 123.9Q316.9 122 314.9 122Q313.9 122 312.6 122.4Q311.3 122.8 309.5 123.7Q309.1 123.8 308.8 123.2Q308.5 122.6 309 122.4L322.9 115.9Q323.1 115.8 323.2 115.8Q323.5 115.8 323.8 116Q324 116.2 324 116.5ZM320.2 102.2Q318.1 102.2 316.9 101.1Q315.7 100 315.7 98Q315.7 95.9 316.9 94.8Q318.1 93.7 320.2 93.7Q322.2 93.7 323.3 94.8Q324.4 95.9 324.4 98Q324.4 102.2 320.2 102.2ZM354.7 161.3Q348.1 161.3 343.6 158.3Q339.2 155.2 337 150.3Q334.7 145.3 334.7 139.8Q334.7 133 337.9 127.6Q341 122.1 346.3 119Q351.7 115.8 357.9 115.8Q364.3 115.8 367.4 119.2Q370.6 122.7 370.6 128.5Q370.6 130 370.3 130.7Q370 131.3 369.2 131.3H364Q364.5 124.4 361.8 121.2Q359 118 354.3 118Q348.1 118 344.6 122.8Q341.1 127.5 341.1 135.8Q341.1 142.1 343.1 147.1Q345.2 152 349.1 154.9Q353 157.8 358.6 157.8Q362.5 157.8 365 156.6Q367.6 155.4 369.9 154Q370.1 153.7 370.5 154.2Q370.9 154.7 370.7 155.1Q366.8 158.4 362.8 159.9Q358.8 161.3 354.7 161.3ZM339.7 131.4 339.6 130.1 365.1 129.6V131.3Z"/>
<path fill="#eee6d8" d="M1059.6 160.2Q1058.2 160.2 1057.2 159.7Q1056.1 159.2 1055.6 158.2Q1055 157.2 1055 155.8V152.7Q1055 151.3 1055.6 150.3Q1056.1 149.3 1057.2 148.8Q1058.2 148.2 1059.6 148.2Q1061.6 148.2 1062.8 149.3Q1064 150.4 1064.1 152.2H1062.2Q1062.1 151.1 1061.4 150.5Q1060.8 149.9 1059.6 149.9Q1058.3 149.9 1057.6 150.6Q1056.9 151.3 1056.9 152.6V155.8Q1056.9 157.1 1057.6 157.8Q1058.3 158.5 1059.6 158.5Q1060.8 158.5 1061.4 157.9Q1062.1 157.3 1062.2 156.2H1064.1Q1064 158.1 1062.8 159.1Q1061.6 160.2 1059.6 160.2ZM1068.2 160V144.7H1070V148.4V150.7H1070.4L1070 151.1Q1070 149.7 1070.9 149Q1071.7 148.2 1073.1 148.2Q1074.9 148.2 1075.9 149.3Q1076.9 150.4 1076.9 152.2V160H1075V152.4Q1075 151.2 1074.4 150.5Q1073.7 149.8 1072.6 149.8Q1071.4 149.8 1070.7 150.6Q1070 151.3 1070 152.7V160ZM1084.5 160.2Q1082.7 160.2 1081.7 159.3Q1080.6 158.3 1080.6 156.7Q1080.6 155.1 1081.7 154.2Q1082.7 153.3 1084.5 153.3H1088.1V152.1Q1088.1 151.1 1087.4 150.5Q1086.8 149.9 1085.6 149.9Q1084.6 149.9 1083.9 150.3Q1083.2 150.8 1083.1 151.5H1081.2Q1081.4 150 1082.6 149.1Q1083.8 148.2 1085.6 148.2Q1087.6 148.2 1088.8 149.3Q1090 150.3 1090 152.1V160H1088.1V157.8H1087.8L1088.1 157.5Q1088.1 158.7 1087.1 159.5Q1086.1 160.2 1084.5 160.2ZM1085 158.7Q1086.3 158.7 1087.2 158Q1088.1 157.4 1088.1 156.3V154.7H1084.5Q1083.6 154.7 1083 155.2Q1082.5 155.7 1082.5 156.6Q1082.5 157.6 1083.2 158.2Q1083.8 158.7 1085 158.7ZM1098.2 160.2Q1097 160.2 1096.2 159.8Q1095.3 159.4 1094.8 158.8Q1094.3 158.1 1094.2 157.2H1096Q1096.2 157.8 1096.7 158.1Q1097.3 158.5 1098.2 158.5H1099.1Q1100.2 158.5 1100.7 158Q1101.3 157.6 1101.3 156.8Q1101.3 156.1 1100.8 155.7Q1100.3 155.2 1099.3 155.1L1097.8 154.8Q1096.1 154.5 1095.3 153.8Q1094.4 153 1094.4 151.5Q1094.4 150 1095.4 149.1Q1096.4 148.3 1098.4 148.3H1099.2Q1100.8 148.3 1101.8 149.1Q1102.8 149.8 1103.1 151.2H1101.2Q1101 150.6 1100.5 150.3Q1100 150 1099.2 150H1098.4Q1097.3 150 1096.8 150.4Q1096.3 150.8 1096.3 151.6Q1096.3 152.3 1096.7 152.6Q1097.2 152.9 1098.1 153.1L1099.6 153.3Q1101.5 153.6 1102.3 154.4Q1103.2 155.2 1103.2 156.7Q1103.2 158.3 1102.2 159.3Q1101.1 160.2 1099.1 160.2ZM1111.6 160.2Q1110.2 160.2 1109.2 159.7Q1108.2 159.1 1107.6 158.1Q1107.1 157.1 1107.1 155.8V152.7Q1107.1 151.3 1107.6 150.3Q1108.2 149.3 1109.2 148.8Q1110.2 148.2 1111.6 148.2Q1112.9 148.2 1114 148.8Q1115 149.3 1115.5 150.3Q1116.1 151.3 1116.1 152.7V154.7H1108.9V155.8Q1108.9 157.2 1109.6 157.9Q1110.3 158.6 1111.6 158.6Q1112.7 158.6 1113.3 158.2Q1114 157.8 1114.2 157.1H1116.1Q1115.9 158.5 1114.6 159.4Q1113.4 160.2 1111.6 160.2ZM1114.2 153.4V152.7Q1114.2 151.3 1113.6 150.6Q1112.9 149.8 1111.6 149.8Q1110.3 149.8 1109.6 150.6Q1108.9 151.3 1108.9 152.7V153.3H1114.4ZM1120.1 163.8V162H1122.8Q1124.1 162 1124.8 161.3Q1125.5 160.6 1125.5 159.3V150.2H1120.7V148.4H1127.4V159.3Q1127.4 161.4 1126.2 162.6Q1124.9 163.8 1122.8 163.8ZM1126.4 146.4Q1125.7 146.4 1125.3 146Q1124.9 145.7 1124.9 145Q1124.9 144.4 1125.3 144.1Q1125.7 143.7 1126.4 143.7Q1127.1 143.7 1127.5 144.1Q1127.9 144.4 1127.9 145Q1127.9 145.7 1127.5 146Q1127.1 146.4 1126.4 146.4ZM1137.6 160.2Q1136.3 160.2 1135.2 159.7Q1134.2 159.1 1133.7 158.1Q1133.1 157.1 1133.1 155.8V152.7Q1133.1 151.3 1133.7 150.3Q1134.2 149.3 1135.2 148.8Q1136.3 148.2 1137.6 148.2Q1139 148.2 1140 148.8Q1141 149.3 1141.6 150.3Q1142.1 151.3 1142.1 152.7V154.7H1135V155.8Q1135 157.2 1135.6 157.9Q1136.3 158.6 1137.6 158.6Q1138.7 158.6 1139.4 158.2Q1140.1 157.8 1140.2 157.1H1142.1Q1141.9 158.5 1140.7 159.4Q1139.4 160.2 1137.6 160.2ZM1140.3 153.4V152.7Q1140.3 151.3 1139.6 150.6Q1138.9 149.8 1137.6 149.8Q1136.3 149.8 1135.6 150.6Q1135 151.3 1135 152.7V153.3H1140.4ZM1150.6 160.2Q1149.8 160.2 1149.4 159.7Q1148.9 159.3 1148.9 158.5Q1148.9 157.7 1149.4 157.2Q1149.8 156.7 1150.6 156.7Q1151.4 156.7 1151.9 157.2Q1152.4 157.7 1152.4 158.5Q1152.4 159.3 1151.9 159.7Q1151.4 160.2 1150.6 160.2ZM1163.7 160.2Q1162.4 160.2 1161.3 159.7Q1160.3 159.2 1159.7 158.2Q1159.1 157.2 1159.1 155.8V152.7Q1159.1 151.3 1159.7 150.3Q1160.3 149.3 1161.3 148.8Q1162.4 148.2 1163.7 148.2Q1165.7 148.2 1167 149.3Q1168.2 150.4 1168.2 152.2H1166.3Q1166.3 151.1 1165.6 150.5Q1164.9 149.9 1163.7 149.9Q1162.5 149.9 1161.8 150.6Q1161 151.3 1161 152.6V155.8Q1161 157.1 1161.8 157.8Q1162.5 158.5 1163.7 158.5Q1164.9 158.5 1165.6 157.9Q1166.3 157.3 1166.3 156.2H1168.2Q1168.2 158.1 1167 159.1Q1165.7 160.2 1163.7 160.2ZM1176.7 160.2Q1175.3 160.2 1174.3 159.6Q1173.3 159.1 1172.7 158.1Q1172.2 157.1 1172.2 155.8V152.7Q1172.2 151.3 1172.7 150.3Q1173.3 149.3 1174.3 148.8Q1175.3 148.3 1176.7 148.3Q1178.1 148.3 1179.1 148.8Q1180.1 149.3 1180.6 150.3Q1181.2 151.3 1181.2 152.7V155.8Q1181.2 157.1 1180.6 158.1Q1180.1 159.1 1179.1 159.6Q1178.1 160.2 1176.7 160.2ZM1176.7 158.5Q1177.9 158.5 1178.6 157.8Q1179.3 157.1 1179.3 155.8V152.7Q1179.3 151.3 1178.6 150.7Q1177.9 150 1176.7 150Q1175.5 150 1174.8 150.7Q1174.1 151.3 1174.1 152.7V155.8Q1174.1 157.1 1174.8 157.8Q1175.5 158.5 1176.7 158.5ZM1184.8 160V148.4H1186.4V149.8H1186.8L1186.5 150.3Q1186.5 149.4 1187 148.8Q1187.6 148.2 1188.4 148.2Q1189.4 148.2 1189.9 149Q1190.5 149.7 1190.5 151L1189.9 149.8H1190.8L1190.4 150.3Q1190.4 149.4 1190.9 148.8Q1191.4 148.2 1192.3 148.2Q1193.4 148.2 1194 149.1Q1194.6 149.9 1194.6 151.2V160H1192.9V151.2Q1192.9 150.5 1192.6 150.1Q1192.3 149.7 1191.7 149.7Q1191.1 149.7 1190.8 150.1Q1190.5 150.5 1190.5 151.2V160H1188.9V151.2Q1188.9 150.5 1188.6 150.1Q1188.3 149.7 1187.7 149.7Q1187.1 149.7 1186.8 150.1Q1186.5 150.5 1186.5 151.2V160Z"/>
<g fill="none" stroke="#eee6d8" stroke-width="2.4" stroke-linecap="round" stroke-linejoin="round"><path d="M1212.0 158.0 L1232.0 138.0 M1217.6 138.0 H1232.0 V152.4"><animateTransform attributeName="transform" type="translate" dur="2.6s" repeatCount="indefinite" calcMode="spline" keyTimes="0;0.5;1" keySplines="0.45 0 0.55 1;0.45 0 0.55 1" values="0 0;5 -5;0 0"/></path></g>
</g>
</svg>
